<svg xmlns="http://www.w3.org/2000/svg" width="16.85" height="18.5" viewBox="0 0 16.85 18.5">
  <g id="Icon_feather-share-2" data-name="Icon feather-share-2" transform="translate(1 1)">
    <path id="Path_1" data-name="Path 1" d="M27.45,5.475A2.475,2.475,0,1,1,24.975,3,2.475,2.475,0,0,1,27.45,5.475Z" transform="translate(-12.6 -3)" fill="none" stroke="#000" stroke-linecap="round" stroke-linejoin="round" stroke-width="2"/>
    <path id="Path_2" data-name="Path 2" d="M9.45,15.975A2.475,2.475,0,1,1,6.975,13.5,2.475,2.475,0,0,1,9.45,15.975Z" transform="translate(-4.5 -7.725)" fill="none" stroke="#000" stroke-linecap="round" stroke-linejoin="round" stroke-width="2"/>
    <path id="Path_3" data-name="Path 3" d="M27.45,26.475A2.475,2.475,0,1,1,24.975,24,2.475,2.475,0,0,1,27.45,26.475Z" transform="translate(-12.6 -12.45)" fill="none" stroke="#000" stroke-linecap="round" stroke-linejoin="round" stroke-width="2"/>
    <path id="Path_4" data-name="Path 4" d="M12.885,20.265l5.635,3.284" transform="translate(-8.273 -10.769)" fill="none" stroke="#000" stroke-linecap="round" stroke-linejoin="round" stroke-width="2"/>
    <path id="Path_5" data-name="Path 5" d="M18.512,9.765l-5.627,3.283" transform="translate(-8.273 -6.044)" fill="none" stroke="#000" stroke-linecap="round" stroke-linejoin="round" stroke-width="2"/>
  </g>
</svg>
